<?xml version="1.0" standalone="no"?>
<!DOCTYPE svg PUBLIC "-//W3C//DTD SVG 20010904//EN"
 "http://www.w3.org/TR/2001/REC-SVG-20010904/DTD/svg10.dtd">
<svg version="1.0" xmlns="http://www.w3.org/2000/svg"
 width="441.000000pt" height="160.000000pt" viewBox="0 0 441.000000 160.000000"
 preserveAspectRatio="xMidYMid meet">

<g transform="translate(0.000000,160.000000) scale(0.100000,-0.100000)"
fill="#000000" stroke="none">
<path d="M1642 1561 c-19 -13 -42 -41 -57 -73 -23 -50 -268 -623 -377 -883
-27 -66 -65 -153 -84 -193 l-33 -72 -358 2 -358 3 -3 157 -3 158 258 2 257 3
63 143 c35 79 61 148 58 153 -4 5 -138 9 -321 9 l-314 0 0 145 0 145 390 0
c215 0 390 1 390 3 0 1 13 34 29 72 16 39 43 104 60 145 17 41 31 78 31 83 0
4 -279 7 -620 7 l-620 0 0 -770 0 -770 642 2 643 3 38 95 c21 52 62 154 92
225 51 123 137 337 175 435 54 138 93 230 100 230 4 0 19 -33 35 -72 15 -40
85 -219 155 -398 71 -179 142 -362 160 -408 40 -105 66 -125 155 -119 53 3 62
7 88 38 25 30 181 403 338 809 49 126 57 142 71 138 6 -2 97 -222 204 -488
l193 -485 171 -3 170 -2 -19 47 c-46 117 -152 370 -161 385 -20 36 -12 48 33
49 226 6 385 6 394 1 6 -4 33 -45 60 -92 27 -47 89 -154 137 -237 l88 -153
200 0 199 0 -12 23 c-7 12 -47 76 -89 142 -100 157 -233 376 -228 378 1 1 26
13 53 27 112 56 222 203 245 329 47 250 -55 473 -261 575 -123 60 -169 66
-571 66 -197 0 -358 -3 -358 -7 0 -5 35 -89 78 -188 43 -99 99 -226 123 -282
24 -57 47 -103 52 -103 4 0 7 61 7 135 l0 135 188 0 c201 0 254 -9 316 -51
131 -89 117 -287 -24 -359 -67 -34 -152 -41 -470 -38 l-304 3 -141 335 c-77
185 -148 348 -158 363 -55 84 -196 88 -243 7 -11 -20 -175 -423 -339 -835 -17
-44 -35 -79 -40 -78 -4 1 -19 30 -32 65 -48 122 -156 393 -164 408 -4 8 -26
65 -50 125 -23 61 -48 124 -54 140 -7 17 -25 62 -40 102 -37 97 -68 126 -142
130 -46 3 -65 0 -91 -16z"/>
</g>
</svg>
