<?xml version="1.0" standalone="no"?>
<!DOCTYPE svg PUBLIC "-//W3C//DTD SVG 20010904//EN"
 "http://www.w3.org/TR/2001/REC-SVG-20010904/DTD/svg10.dtd">
<svg version="1.0" xmlns="http://www.w3.org/2000/svg"
 width="768.000000pt" height="768.000000pt" viewBox="0 0 768.000000 768.000000"
 preserveAspectRatio="xMidYMid meet">

<g transform="translate(0.000000,768.000000) scale(0.100000,-0.100000)"
fill="#000000" stroke="none">
<path d="M3302 4521 c-19 -13 -42 -41 -57 -73 -22 -47 -206 -478 -390 -913
-37 -88 -76 -177 -87 -198 l-19 -37 -357 2 -357 3 -3 158 -3 157 255 0 255 0
15 28 c37 73 115 265 110 273 -3 5 -146 9 -320 9 l-314 0 0 145 0 145 390 0
c215 0 390 1 390 3 0 1 13 34 29 72 16 39 43 104 60 145 17 41 31 78 31 83 0
4 -279 7 -620 7 l-620 0 0 -770 0 -770 642 2 643 3 38 95 c21 52 62 154 92
225 51 123 137 337 175 435 54 138 93 230 100 230 4 0 19 -33 35 -72 15 -40
85 -219 155 -398 71 -179 142 -362 160 -408 38 -100 65 -122 149 -122 85 0
104 27 218 310 52 129 98 246 102 260 5 14 26 68 48 120 22 52 57 139 78 192
20 53 42 102 49 107 9 8 58 -105 206 -477 107 -268 197 -490 200 -495 4 -4 81
-6 173 -5 l166 3 -85 205 c-46 113 -88 213 -94 222 -23 40 -13 48 58 50 220 5
361 5 370 -1 5 -3 32 -44 59 -91 27 -47 89 -154 137 -237 l88 -153 200 0 199
0 -12 23 c-7 12 -47 76 -89 142 -100 157 -233 376 -228 378 1 1 26 13 53 27
112 56 222 203 245 329 53 284 -83 525 -345 612 -67 22 -84 23 -457 27 -214 2
-388 0 -388 -4 0 -14 243 -570 254 -581 3 -3 6 57 6 135 l0 142 188 0 c201 0
254 -9 316 -51 131 -89 117 -287 -24 -359 -67 -34 -152 -41 -470 -38 l-304 3
-141 335 c-77 185 -148 348 -158 363 -55 84 -196 88 -243 7 -11 -20 -175 -423
-339 -835 -17 -44 -35 -79 -40 -78 -4 1 -19 30 -32 65 -48 122 -156 393 -164
408 -4 8 -26 65 -50 125 -23 61 -48 124 -54 140 -7 17 -25 62 -40 102 -37 97
-68 126 -142 130 -46 3 -65 0 -91 -16z"/>
</g>
</svg>
